<svg width="69" height="69" viewBox="0 0 69 69" fill="none" xmlns="http://www.w3.org/2000/svg">
<path d="M8.625 12.9375V56.0419" stroke="white" stroke-width="4" stroke-linecap="round"/>
<path d="M60.375 25.875V56.0625" stroke="white" stroke-width="4" stroke-linecap="round" stroke-linejoin="round"/>
<path d="M17.25 4.3125H38.8125" stroke="white" stroke-width="4" stroke-linecap="round" stroke-linejoin="round"/>
<path d="M17.25 64.6875H51.75" stroke="white" stroke-width="4" stroke-linecap="round"/>
<path d="M60.375 56.0625C60.3986 60.3701 56.0625 64.6875 51.75 64.6875" stroke="white" stroke-width="4" stroke-linecap="round" stroke-linejoin="round"/>
<path d="M8.625 56.0625C8.625 60.375 12.9375 64.6875 17.25 64.6875" stroke="white" stroke-width="4" stroke-linecap="round" stroke-linejoin="round"/>
<path d="M8.625 12.9312C8.625 8.62491 12.9375 4.40845 17.25 4.31241" stroke="white" stroke-width="4" stroke-linecap="round" stroke-linejoin="round"/>
<path d="M60.3514 25.8943L38.8125 4.3125" stroke="white" stroke-width="4" stroke-linecap="round" stroke-linejoin="round"/>
<path d="M38.8125 17.25C38.8258 21.539 43.1424 25.875 47.4375 25.875" stroke="white" stroke-width="4" stroke-linecap="round" stroke-linejoin="round"/>
<path d="M38.8125 17.25V4.3125" stroke="white" stroke-width="4" stroke-linecap="round" stroke-linejoin="round"/>
<path d="M47.4375 25.875H60.375" stroke="white" stroke-width="4" stroke-linecap="round" stroke-linejoin="round"/>
<path d="M36.3721 53.6568L47.3132 41" stroke="#00B368" stroke-width="3" stroke-linecap="round" stroke-linejoin="round"/>
<path d="M22 47.1596L27.6252 53.6568L38.5663 41" stroke="white" stroke-width="3" stroke-linecap="round" stroke-linejoin="round"/>
</svg>
