<svg width="117" height="126" viewBox="0 0 117 126" fill="none" xmlns="http://www.w3.org/2000/svg">
<path d="M12.7824 20.1275L13.2428 18.6999L12.7824 20.1275ZM1.31641 15.3158C0.579113 15.6935 0.287637 16.5974 0.665374 17.3347L6.82101 29.3496C7.19875 30.0869 8.10267 30.3784 8.83996 30.0007C9.57725 29.6229 9.86873 28.719 9.49099 27.9817L4.01932 17.3018L14.6992 11.8301C15.4365 11.4524 15.728 10.5485 15.3503 9.81116C14.9725 9.07387 14.0686 8.78239 13.3313 9.16013L1.31641 15.3158ZM13.2428 18.6999L2.46071 15.2231L1.54002 18.0784L12.3221 21.5551L13.2428 18.6999ZM59.1191 72.0477C55.0462 47.0667 37.3321 26.4678 13.2428 18.6999L12.3221 21.5551C35.3401 28.9776 52.2664 48.6604 56.1582 72.5304L59.1191 72.0477Z" fill="#00B368"/>
<g filter="url(#filter0_d_1500_2)">
<rect x="12.1514" y="79.5" width="96" height="38" rx="8" fill="#00B368" fill-opacity="0.15" shape-rendering="crispEdges"/>
<rect x="12.6514" y="80" width="95" height="37" rx="7.5" stroke="#00B368" stroke-opacity="0.3" shape-rendering="crispEdges"/>
</g>
<path d="M35.3132 98.1697V100.921H26.8004V98.1697H35.3132ZM45.4002 109.259C44.0707 109.259 42.8888 109.031 41.8548 108.575C40.8268 108.12 40.0143 107.486 39.4173 106.673C38.8202 105.861 38.5032 104.922 38.4663 103.857H41.9379C41.9686 104.368 42.1379 104.814 42.4457 105.196C42.7534 105.571 43.1628 105.864 43.6737 106.073C44.1845 106.282 44.757 106.387 45.391 106.387C46.0681 106.387 46.6682 106.27 47.1914 106.036C47.7146 105.796 48.1239 105.464 48.4194 105.039C48.7148 104.614 48.8595 104.125 48.8533 103.571C48.8595 102.999 48.7118 102.494 48.4102 102.057C48.1085 101.62 47.6715 101.278 47.0991 101.032C46.5328 100.786 45.8496 100.663 45.0494 100.663H43.3782V98.022H45.0494C45.708 98.022 46.2835 97.9081 46.7759 97.6804C47.2745 97.4527 47.6654 97.1326 47.9485 96.7202C48.2317 96.3016 48.3701 95.8184 48.364 95.2706C48.3701 94.7351 48.2501 94.2704 48.0039 93.8764C47.7638 93.4763 47.4222 93.1655 46.979 92.9439C46.542 92.7223 46.0281 92.6115 45.4371 92.6115C44.8585 92.6115 44.323 92.7161 43.8306 92.9254C43.3382 93.1347 42.9412 93.4332 42.6396 93.821C42.338 94.2027 42.1779 94.6581 42.1594 95.1875H38.8633C38.8879 94.1288 39.1926 93.1993 39.7773 92.3991C40.3683 91.5928 41.1561 90.965 42.141 90.5156C43.1258 90.0601 44.2307 89.8324 45.4556 89.8324C46.7174 89.8324 47.8131 90.0694 48.7425 90.5433C49.6781 91.0111 50.4014 91.642 50.9123 92.4361C51.4232 93.2301 51.6786 94.1072 51.6786 95.0675C51.6848 96.1323 51.3709 97.0249 50.7369 97.745C50.109 98.4652 49.2842 98.9361 48.2624 99.1577V99.3054C49.592 99.4901 50.6107 99.9825 51.3185 100.783C52.0326 101.577 52.3865 102.565 52.3803 103.746C52.3803 104.805 52.0787 105.753 51.4755 106.59C50.8784 107.421 50.0536 108.074 49.0011 108.548C47.9547 109.022 46.7544 109.259 45.4002 109.259ZM62.5389 109.36C61.0185 109.36 59.7136 108.975 58.6241 108.206C57.5408 107.43 56.7067 106.313 56.122 104.854C55.5434 103.389 55.2541 101.626 55.2541 99.5639C55.2602 97.5019 55.5526 95.7476 56.1312 94.3011C56.716 92.8485 57.55 91.7405 58.6333 90.9773C59.7228 90.214 61.0247 89.8324 62.5389 89.8324C64.0531 89.8324 65.3549 90.214 66.4444 90.9773C67.5339 91.7405 68.368 92.8485 68.9466 94.3011C69.5313 95.7538 69.8237 97.508 69.8237 99.5639C69.8237 101.632 69.5313 103.399 68.9466 104.864C68.368 106.322 67.5339 107.437 66.4444 108.206C65.3611 108.975 64.0592 109.36 62.5389 109.36ZM62.5389 106.47C63.7207 106.47 64.6532 105.888 65.3365 104.725C66.0259 103.556 66.3706 101.835 66.3706 99.5639C66.3706 98.062 66.2136 96.8002 65.8997 95.7784C65.5858 94.7566 65.1426 93.9872 64.5701 93.4702C63.9977 92.947 63.3206 92.6854 62.5389 92.6854C61.3632 92.6854 60.4338 93.2701 59.7505 94.4396C59.0673 95.603 58.7226 97.3111 58.7164 99.5639C58.7103 101.072 58.8611 102.34 59.1689 103.368C59.4828 104.396 59.926 105.171 60.4984 105.695C61.0708 106.212 61.751 106.47 62.5389 106.47ZM83.0014 105.455V104.457C83.0014 103.725 83.1553 103.051 83.4631 102.435C83.777 101.82 84.2325 101.324 84.8295 100.949C85.4266 100.573 86.1499 100.386 86.9993 100.386C87.8733 100.386 88.6058 100.573 89.1967 100.949C89.7876 101.318 90.2339 101.811 90.5355 102.426C90.8433 103.042 90.9972 103.719 90.9972 104.457V105.455C90.9972 106.187 90.8433 106.861 90.5355 107.477C90.2277 108.092 89.7753 108.588 89.1783 108.963C88.5874 109.339 87.861 109.526 86.9993 109.526C86.1375 109.526 85.4081 109.339 84.8111 108.963C84.214 108.588 83.7616 108.092 83.4538 107.477C83.1522 106.861 83.0014 106.187 83.0014 105.455ZM85.4112 104.457V105.455C85.4112 105.941 85.5282 106.387 85.7621 106.793C85.996 107.2 86.4084 107.403 86.9993 107.403C87.5964 107.403 88.0057 107.203 88.2273 106.803C88.455 106.396 88.5689 105.947 88.5689 105.455V104.457C88.5689 103.965 88.4612 103.516 88.2457 103.109C88.0303 102.697 87.6148 102.491 86.9993 102.491C86.4207 102.491 86.0114 102.697 85.7713 103.109C85.5313 103.516 85.4112 103.965 85.4112 104.457ZM73.3899 94.6335V93.6364C73.3899 92.8977 73.5469 92.2206 73.8608 91.6051C74.1747 90.9896 74.6302 90.4972 75.2273 90.1278C75.8243 89.7524 76.5476 89.5646 77.397 89.5646C78.2649 89.5646 78.9943 89.7524 79.5852 90.1278C80.1823 90.4972 80.6316 90.9896 80.9332 91.6051C81.2348 92.2206 81.3857 92.8977 81.3857 93.6364V94.6335C81.3857 95.3722 81.2318 96.0492 80.924 96.6648C80.6224 97.2741 80.1731 97.7635 79.576 98.1328C78.9789 98.5021 78.2526 98.6868 77.397 98.6868C76.5291 98.6868 75.7966 98.5021 75.1996 98.1328C74.6087 97.7635 74.1593 97.2711 73.8516 96.6555C73.5438 96.04 73.3899 95.366 73.3899 94.6335ZM75.8182 93.6364V94.6335C75.8182 95.1259 75.9321 95.5753 76.1598 95.9815C76.3937 96.3816 76.8061 96.5817 77.397 96.5817C77.9879 96.5817 78.3942 96.3816 78.6158 95.9815C78.8435 95.5753 78.9574 95.1259 78.9574 94.6335V93.6364C78.9574 93.1439 78.8497 92.6946 78.6342 92.2884C78.4188 91.8759 78.0064 91.6697 77.397 91.6697C76.8123 91.6697 76.4029 91.8759 76.169 92.2884C75.9351 92.7008 75.8182 93.1501 75.8182 93.6364ZM74.4425 109L87.4425 90.0909H89.7507L76.7507 109H74.4425Z" fill="#00B368"/>
<defs>
<filter id="filter0_d_1500_2" x="4.15137" y="71.5" width="112" height="54" filterUnits="userSpaceOnUse" color-interpolation-filters="sRGB">
<feFlood flood-opacity="0" result="BackgroundImageFix"/>
<feColorMatrix in="SourceAlpha" type="matrix" values="0 0 0 0 0 0 0 0 0 0 0 0 0 0 0 0 0 0 127 0" result="hardAlpha"/>
<feOffset/>
<feGaussianBlur stdDeviation="4"/>
<feComposite in2="hardAlpha" operator="out"/>
<feColorMatrix type="matrix" values="0 0 0 0 0 0 0 0 0 0.7 0 0 0 0 0.409091 0 0 0 0.2 0"/>
<feBlend mode="normal" in2="BackgroundImageFix" result="effect1_dropShadow_1500_2"/>
<feBlend mode="normal" in="SourceGraphic" in2="effect1_dropShadow_1500_2" result="shape"/>
</filter>
</defs>
</svg>
