<svg width="586" height="794" viewBox="0 0 586 794" fill="none" xmlns="http://www.w3.org/2000/svg">
<g clip-path="url(#clip0_1401_2)">
<path d="M283.973 371.279C283.959 371.071 283.92 370.869 283.849 370.67C283.824 370.596 283.805 370.525 283.773 370.454C283.663 370.218 283.526 369.998 283.335 369.806C283.333 369.801 283.331 369.799 283.326 369.794L270.25 356.718V343.917C270.25 343.869 270.225 343.825 270.223 343.777C270.209 343.573 270.17 343.376 270.103 343.183C270.078 343.11 270.06 343.041 270.028 342.97C269.915 342.727 269.776 342.496 269.579 342.299L248.954 321.674C248.759 321.479 248.527 321.339 248.287 321.227C248.213 321.193 248.138 321.172 248.06 321.147C247.874 321.085 247.684 321.046 247.489 321.032C247.434 321.028 247.386 321 247.333 321H190.042C188.774 321 187.75 322.027 187.75 323.292V356.718L174.674 369.794C174.669 369.799 174.669 369.801 174.665 369.806C174.474 369.996 174.337 370.218 174.227 370.454C174.195 370.523 174.176 370.596 174.151 370.67C174.083 370.867 174.041 371.068 174.028 371.279C174.025 371.327 174 371.369 174 371.417V414.958C174 416.223 175.024 417.25 176.292 417.25H187.75V428.708C187.75 429.973 188.774 431 190.042 431H267.958C269.226 431 270.25 429.973 270.25 428.708V417.25H281.708C282.976 417.25 284 416.223 284 414.958V371.417C284 371.369 283.975 371.327 283.973 371.279ZM276.176 369.125H270.25V363.199L276.176 369.125ZM262.426 341.625H249.625V328.824L262.426 341.625ZM192.333 325.583H245.042V343.917C245.042 345.182 246.066 346.208 247.333 346.208H265.667V357.667V369.125H192.333V357.667V325.583ZM187.75 363.199V369.125H181.824L187.75 363.199ZM265.667 426.417H192.333V417.25H265.667V426.417ZM279.417 412.667H178.583V373.708H190.042H267.958H279.417V412.667Z" fill="#257AB7"/>
<path d="M206.482 380.501H199.548V408.083H206.443C210.002 408.083 212.697 406.883 214.528 404.479C216.36 402.077 217.274 398.695 217.274 394.331C217.274 389.968 216.36 386.572 214.528 384.142C212.695 381.716 210.014 380.501 206.482 380.501ZM212.15 398.557C211.852 399.767 211.428 400.773 210.882 401.577C210.337 402.382 209.688 402.987 208.935 403.388C208.181 403.791 207.362 403.993 206.48 403.993H204.26V384.592H206.48C207.362 384.592 208.181 384.793 208.935 385.194C209.688 385.598 210.337 386.203 210.882 387.007C211.428 387.811 211.85 388.824 212.15 390.046C212.448 391.267 212.597 392.695 212.597 394.331C212.599 395.942 212.45 397.349 212.15 398.557Z" fill="#257AB7"/>
<path d="M249.765 387.124C250.232 386.214 250.816 385.495 251.518 384.961C252.219 384.429 253.037 384.163 253.972 384.163C255.661 384.163 257.036 384.929 258.102 386.462L260.79 383.189C260.036 382.098 259.062 381.262 257.868 380.675C256.674 380.091 255.283 379.8 253.699 379.8C252.166 379.8 250.771 380.157 249.513 380.87C248.252 381.585 247.182 382.584 246.297 383.87C245.415 385.158 244.732 386.689 244.253 388.467C243.772 390.248 243.531 392.189 243.531 394.292C243.531 396.396 243.772 398.33 244.253 400.097C244.734 401.864 245.408 403.388 246.279 404.674C247.15 405.961 248.213 406.968 249.474 407.694C250.734 408.42 252.143 408.785 253.702 408.785C255.416 408.785 256.837 408.448 257.966 407.772C259.096 407.096 260.024 406.214 260.751 405.123L258.063 401.967C257.62 402.643 257.07 403.214 256.408 403.681C255.746 404.149 254.96 404.383 254.052 404.383C253.092 404.383 252.253 404.117 251.538 403.583C250.823 403.051 250.234 402.331 249.767 401.422C249.299 400.512 248.949 399.442 248.715 398.206C248.481 396.974 248.364 395.67 248.364 394.292C248.364 392.89 248.481 391.572 248.715 390.337C248.946 389.104 249.297 388.034 249.765 387.124Z" fill="#257AB7"/>
<path d="M237.727 383.774C236.87 382.502 235.825 381.521 234.592 380.831C233.359 380.144 231.975 379.8 230.444 379.8C228.885 379.8 227.49 380.144 226.257 380.831C225.024 381.521 223.979 382.502 223.122 383.774C222.265 385.045 221.616 386.565 221.174 388.332C220.732 390.099 220.512 392.072 220.512 394.253C220.512 396.435 220.739 398.415 221.195 400.193C221.648 401.974 222.306 403.5 223.161 404.772C224.018 406.044 225.056 407.032 226.278 407.733C227.499 408.434 228.888 408.785 230.446 408.785C231.979 408.785 233.361 408.434 234.594 407.733C235.827 407.032 236.872 406.044 237.729 404.772C238.586 403.5 239.242 401.974 239.695 400.193C240.149 398.415 240.378 396.435 240.378 394.253C240.378 392.072 240.151 390.099 239.695 388.332C239.239 386.565 238.584 385.045 237.727 383.774ZM235.233 398.206C235.025 399.442 234.709 400.512 234.28 401.422C233.852 402.331 233.32 403.044 232.683 403.564C232.046 404.085 231.299 404.344 230.442 404.344C229.584 404.344 228.837 404.085 228.2 403.564C227.563 403.044 227.032 402.331 226.603 401.422C226.174 400.512 225.856 399.442 225.647 398.206C225.439 396.974 225.336 395.656 225.336 394.253C225.336 392.851 225.439 391.533 225.647 390.298C225.856 389.065 226.172 388.002 226.603 387.103C227.032 386.207 227.563 385.501 228.2 384.981C228.837 384.461 229.584 384.202 230.442 384.202C231.273 384.202 232.007 384.461 232.642 384.981C233.279 385.501 233.81 386.207 234.239 387.103C234.667 388.002 234.993 389.065 235.213 390.298C235.433 391.533 235.545 392.851 235.545 394.253C235.545 395.656 235.442 396.974 235.233 398.206Z" fill="#257AB7"/>
</g>
<g clip-path="url(#clip1_1401_2)">
<path d="M212.075 124.984C212.001 124.769 211.904 124.569 211.776 124.381C211.729 124.311 211.689 124.241 211.635 124.176C211.452 123.955 211.241 123.758 210.985 123.612C210.982 123.61 210.982 123.61 210.982 123.61L193.507 113.519L189.893 100.03C189.878 99.9771 189.84 99.9384 189.821 99.8865C189.749 99.6779 189.653 99.4836 189.531 99.2989C189.484 99.2288 189.444 99.1591 189.388 99.0939C189.201 98.8697 188.989 98.6652 188.725 98.5132L161.169 82.6033C160.905 82.4513 160.621 82.3669 160.332 82.3202C160.25 82.3058 160.173 82.3059 160.091 82.3018C159.867 82.2844 159.646 82.2996 159.423 82.3464C159.375 82.3515 159.325 82.339 159.274 82.3526L98.9037 98.5288C97.5707 98.8859 96.7788 100.258 97.1359 101.591L106.574 136.813L96.4851 154.287C96.4851 154.287 96.4834 154.29 96.4816 154.293C96.3331 154.55 96.2516 154.826 96.2024 155.106C96.1886 155.19 96.1893 155.27 96.1835 155.354C96.1667 155.581 96.1795 155.803 96.2263 156.026C96.2357 156.08 96.2208 156.131 96.235 156.184L108.529 202.066C108.886 203.398 110.258 204.19 111.591 203.833L123.665 200.598L126.9 212.672C127.257 214.005 128.629 214.797 129.962 214.44L212.066 192.44C213.399 192.083 214.191 190.711 213.833 189.378L210.598 177.304L222.672 174.069C224.005 173.712 224.797 172.34 224.44 171.007L212.146 125.126C212.132 125.073 212.094 125.036 212.075 124.984ZM203.255 124.92L197.01 126.593L195.337 120.349L203.255 124.92ZM181.001 99.8245L167.512 103.439L163.898 89.9497L181.001 99.8245ZM102.613 102.711L158.153 87.8293L163.33 107.148C163.687 108.481 165.059 109.273 166.392 108.916L185.71 103.739L188.945 115.813L192.181 127.887L114.907 148.593L111.671 136.519L102.613 102.711ZM108.404 143.642L110.077 149.887L103.832 151.56L108.404 143.642ZM208.357 188.258L131.083 208.963L128.495 199.304L205.769 178.598L208.357 188.258ZM218.963 169.886L112.712 198.357L101.712 157.305L113.786 154.07L195.889 132.07L207.964 128.835L218.963 169.886Z" fill="#BB8702"/>
<path d="M184.418 160.854L187.949 159.908L189.962 167.421C189.699 167.755 189.323 168.068 188.829 168.361C188.336 168.656 187.762 168.89 187.105 169.066C186.065 169.345 185.096 169.312 184.198 168.965C183.297 168.619 182.474 168.027 181.718 167.187C180.965 166.348 180.292 165.312 179.696 164.076C179.102 162.843 178.607 161.488 178.211 160.01C177.83 158.587 177.59 157.2 177.491 155.847C177.393 154.494 177.46 153.267 177.692 152.162C177.924 151.059 178.34 150.119 178.94 149.343C179.539 148.566 180.344 148.042 181.358 147.771C183.22 147.272 184.91 147.67 186.429 148.964L188.338 144.756C187.243 143.846 185.984 143.254 184.56 142.973C183.137 142.695 181.563 142.788 179.839 143.25C178.196 143.69 176.82 144.463 175.707 145.566C174.595 146.671 173.755 148.025 173.188 149.629C172.622 151.235 172.34 153.032 172.346 155.025C172.352 157.019 172.652 159.123 173.246 161.34C173.855 163.612 174.662 165.609 175.668 167.335C176.674 169.061 177.827 170.468 179.13 171.555C180.434 172.642 181.867 173.366 183.431 173.724C184.995 174.084 186.637 174.032 188.361 173.57C190.059 173.115 191.456 172.505 192.558 171.741C193.658 170.978 194.552 170.122 195.236 169.176L191.287 154.438L183.282 156.583C183.274 156.585 184.418 160.854 184.418 160.854Z" fill="#BB8702"/>
<path d="M140.31 156.591C139.351 156.131 138.343 155.894 137.282 155.885C136.223 155.877 135.228 155.996 134.298 156.245L126.252 158.401L134.04 187.466L138.884 186.168L135.76 174.509L139.208 173.585C140.22 173.314 141.158 172.871 142.021 172.259C142.885 171.647 143.585 170.872 144.126 169.935C144.667 168.998 145.014 167.917 145.17 166.684C145.325 165.455 145.206 164.102 144.81 162.624C144.37 160.982 143.749 159.681 142.949 158.723C142.149 157.765 141.27 157.053 140.31 156.591ZM139.984 167.766C139.462 168.773 138.625 169.429 137.476 169.737L134.684 170.485L132.209 161.248L135.001 160.501C136.15 160.193 137.19 160.294 138.12 160.809C139.049 161.323 139.723 162.359 140.141 163.919C140.559 165.479 140.507 166.761 139.984 167.766Z" fill="#BB8702"/>
<path d="M166.024 169.875L165.901 169.908L152.198 151.448L146.574 152.955L154.362 182.02L158.796 180.832L153.214 160.328L153.337 160.295L167.088 178.61L172.507 177.158L164.719 148.093L160.45 149.237L166.024 169.875Z" fill="#BB8702"/>
</g>
<path d="M229 4V29.3393" stroke="#BCBCBC" stroke-width="8" stroke-miterlimit="10" stroke-linecap="round" stroke-linejoin="round"/>
<path d="M288.124 63.125H262.785" stroke="#BCBCBC" stroke-width="8" stroke-miterlimit="10" stroke-linecap="round" stroke-linejoin="round"/>
<path d="M270.387 21.7378L252.649 39.4753" stroke="#BCBCBC" stroke-width="8" stroke-miterlimit="10" stroke-linecap="round" stroke-linejoin="round"/>
<g clip-path="url(#clip2_1401_2)">
<path d="M488.27 231.883C488.31 231.678 488.324 231.475 488.309 231.267C488.304 231.19 488.304 231.116 488.292 231.039C488.247 230.781 488.17 230.528 488.033 230.294C488.032 230.291 488.032 230.291 488.032 230.291L478.784 214.271L482.098 201.906C482.111 201.857 482.098 201.809 482.106 201.759C482.145 201.561 482.158 201.362 482.146 201.16C482.14 201.082 482.141 201.009 482.126 200.931C482.081 200.668 482.006 200.408 481.866 200.167L467.282 174.906C467.143 174.665 466.956 174.468 466.748 174.296C466.69 174.249 466.628 174.212 466.568 174.172C466.395 174.054 466.211 173.964 466.015 173.898C465.971 173.884 465.937 173.851 465.893 173.839L410.554 159.011C409.332 158.683 408.074 159.409 407.747 160.631L399.096 192.919L383.078 202.166C383.078 202.166 383.075 202.168 383.072 202.17C382.836 202.306 382.645 202.487 382.478 202.687C382.429 202.747 382.393 202.811 382.349 202.875C382.232 203.048 382.14 203.23 382.075 203.428C382.058 203.476 382.023 203.509 382.01 203.558L370.74 245.616C370.413 246.838 371.139 248.095 372.361 248.422L383.429 251.388L380.463 262.456C380.136 263.678 380.862 264.935 382.084 265.263L457.345 285.429C458.567 285.756 459.825 285.03 460.152 283.808L463.118 272.741L474.186 275.706C475.407 276.034 476.665 275.308 476.992 274.086L488.262 232.028C488.275 231.979 488.261 231.933 488.27 231.883ZM481.298 227.789L475.573 226.255L477.107 220.531L481.298 227.789ZM475.134 197.668L462.769 194.354L466.082 181.989L475.134 197.668ZM411.581 164.031L462.493 177.673L457.748 195.382C457.421 196.604 458.147 197.861 459.369 198.188L477.077 202.933L474.112 214.001L471.146 225.069L400.312 206.089L403.277 195.021L411.581 164.031ZM397.418 199.179L395.884 204.903L390.16 203.369L397.418 199.179ZM456.318 280.409L385.483 261.429L387.856 252.574L458.69 271.554L456.318 280.409ZM473.158 270.686L375.761 244.588L385.844 206.957L396.912 209.923L472.173 230.089L483.241 233.055L473.158 270.686Z" fill="#C02020"/>
<path d="M419.617 224.833C419.066 224.028 418.374 223.378 417.536 222.885C416.7 222.393 415.855 222.031 415.003 221.803L407.627 219.827L400.488 246.469L404.929 247.659L407.792 236.972L410.953 237.819C411.881 238.067 412.828 238.146 413.794 238.056C414.76 237.966 415.671 237.672 416.53 237.176C417.389 236.68 418.16 235.98 418.849 235.073C419.535 234.168 420.061 233.04 420.424 231.685C420.827 230.18 420.931 228.862 420.735 227.735C420.538 226.608 420.167 225.64 419.617 224.833ZM414.235 233.557C413.36 234.115 412.395 234.253 411.341 233.97L408.782 233.285L411.051 224.818L413.61 225.503C414.664 225.786 415.442 226.343 415.944 227.178C416.447 228.012 416.507 229.143 416.124 230.573C415.74 232.003 415.111 232.997 414.235 233.557Z" fill="#C02020"/>
<path d="M440.527 257.197L445.08 258.417L448.146 246.978L454.957 248.803L455.996 244.927L449.149 243.092L451.095 235.829L458.506 237.815L459.595 233.751L447.666 230.555L440.527 257.197Z" fill="#C02020"/>
<path d="M432.953 226.612L426.255 224.817L419.116 251.46L425.777 253.245C429.214 254.166 432.128 253.703 434.519 251.858C436.909 250.009 438.668 246.979 439.797 242.764C440.927 238.55 440.923 235.032 439.783 232.212C438.642 229.394 436.367 227.527 432.953 226.612ZM433.756 245.52C433.155 246.612 432.485 247.474 431.753 248.11C431.018 248.746 430.235 249.163 429.403 249.355C428.57 249.549 427.727 249.533 426.875 249.304L424.73 248.729L429.752 229.989L431.897 230.564C432.749 230.792 433.487 231.199 434.111 231.784C434.735 232.366 435.205 233.118 435.524 234.037C435.842 234.955 435.988 236.042 435.959 237.299C435.931 238.556 435.707 239.974 435.284 241.555C434.867 243.111 434.357 244.431 433.756 245.52Z" fill="#C02020"/>
</g>
<path d="M516.399 445.192C516.337 445.013 516.256 444.845 516.147 444.686C516.107 444.628 516.074 444.57 516.029 444.515C515.877 444.333 515.705 444.173 515.492 444.048C515.489 444.045 515.487 444.043 515.482 444.04L500.923 435.635L497.911 424.394C497.899 424.352 497.867 424.319 497.854 424.277C497.793 424.102 497.713 423.938 497.609 423.784C497.57 423.726 497.538 423.67 497.493 423.615C497.337 423.428 497.16 423.258 496.94 423.131L473.976 409.873C473.759 409.748 473.523 409.679 473.286 409.637C473.211 409.625 473.14 409.625 473.065 409.621C472.888 409.61 472.714 409.62 472.539 409.654C472.49 409.663 472.441 409.65 472.395 409.662L422.086 423.143C420.974 423.441 420.316 424.583 420.613 425.694L428.478 455.046L420.072 469.605C420.069 469.61 420.07 469.612 420.067 469.618C419.945 469.829 419.876 470.057 419.835 470.29C419.823 470.358 419.824 470.427 419.82 470.497C419.806 470.686 419.817 470.873 419.854 471.061C419.864 471.104 419.851 471.146 419.863 471.189L430.107 509.423C430.405 510.534 431.546 511.194 432.659 510.896L442.721 508.2L445.417 518.262C445.714 519.373 446.855 520.033 447.968 519.735L516.388 501.402C517.501 501.104 518.159 499.961 517.861 498.851L515.165 488.789L525.227 486.093C526.34 485.795 526.998 484.652 526.7 483.541L516.455 445.307C516.444 445.264 516.412 445.234 516.399 445.192ZM509.046 445.135L503.842 446.53L502.447 441.326L509.046 445.135ZM490.501 424.222L479.26 427.234L476.248 415.993L490.501 424.222ZM425.177 426.628L471.461 414.226L475.775 430.325C476.072 431.436 477.213 432.096 478.326 431.798L494.425 427.485L497.121 437.546L499.817 447.608L435.422 464.863L432.726 454.801L425.177 426.628ZM430.003 460.737L431.397 465.941L426.193 467.335L430.003 460.737ZM513.297 497.917L448.902 515.171L446.745 507.122L511.14 489.867L513.297 497.917ZM522.136 482.607L433.593 506.332L424.426 472.123L434.488 469.426L502.908 451.093L512.97 448.397L522.136 482.607Z" fill="#A43FF3"/>
<path d="M479.734 467.436L484.284 466.217L489.839 486.948L493.875 485.867L488.32 465.135L492.868 463.917L491.933 460.427L478.799 463.947L479.734 467.436Z" fill="#A43FF3"/>
<path d="M449.592 475.512L454.142 474.293L459.697 495.024L463.732 493.943L458.177 473.212L462.727 471.993L461.792 468.504L448.657 472.023L449.592 475.512Z" fill="#A43FF3"/>
<path d="M478.116 464.13L473.908 465.258L472.585 474.559L466.756 467.174L462.48 468.32L471.026 478.313L468.388 492.696L472.665 491.55L474.253 481.188L480.772 489.378L485.187 488.195L475.677 477.067L478.116 464.13Z" fill="#A43FF3"/>
<path d="M157.796 602.881C157.833 602.694 157.846 602.51 157.832 602.321C157.827 602.25 157.827 602.184 157.816 602.114C157.775 601.879 157.705 601.649 157.581 601.436C157.58 601.434 157.58 601.434 157.58 601.434L149.173 586.87L152.185 575.629C152.197 575.585 152.185 575.541 152.193 575.495C152.228 575.315 152.24 575.135 152.229 574.951C152.224 574.88 152.225 574.814 152.211 574.743C152.17 574.503 152.101 574.267 151.975 574.048L138.716 551.084C138.59 550.864 138.42 550.685 138.23 550.531C138.178 550.486 138.122 550.454 138.065 550.417C137.91 550.311 137.744 550.23 137.563 550.171C137.527 550.155 137.496 550.125 137.454 550.113L87.145 536.633C86.0342 536.336 84.8911 536.996 84.5935 538.106L76.7286 567.459L62.1669 575.866C62.1669 575.866 62.1643 575.867 62.1618 575.869C61.9475 575.992 61.7739 576.157 61.6217 576.339C61.5769 576.394 61.544 576.452 61.5047 576.51C61.3979 576.667 61.3148 576.832 61.2556 577.013C61.2398 577.056 61.2079 577.086 61.1961 577.13L50.9511 615.365C50.6535 616.476 51.3135 617.619 52.4243 617.917L62.486 620.613L59.79 630.674C59.4923 631.785 60.1523 632.928 61.2631 633.226L129.683 651.559C130.794 651.857 131.937 651.197 132.234 650.086L134.93 640.024L144.992 642.72C146.103 643.018 147.246 642.358 147.544 641.247L157.789 603.012C157.8 602.968 157.788 602.926 157.796 602.881ZM151.458 599.159L146.254 597.765L147.648 592.561L151.458 599.159ZM145.854 571.776L134.613 568.764L137.625 557.523L145.854 571.776ZM88.0789 541.197L134.363 553.599L130.049 569.698C129.752 570.809 130.412 571.952 131.522 572.249L147.621 576.563L144.925 586.625L142.229 596.686L77.834 579.432L80.5301 569.37L88.0789 541.197ZM75.2037 573.149L73.8093 578.353L68.6054 576.959L75.2037 573.149ZM128.749 646.995L64.3539 629.74L66.5107 621.691L130.906 638.946L128.749 646.995ZM144.058 638.156L55.515 614.431L64.6815 580.221L74.7433 582.917L143.163 601.25L153.225 603.946L144.058 638.156Z" fill="#00B368"/>
<path d="M105.157 601.602C105.526 601.408 105.911 601.298 106.31 601.268C106.707 601.241 107.1 601.28 107.489 601.384C108.835 601.745 109.808 602.579 110.411 603.89L113.457 601.553C113.002 600.601 112.345 599.795 111.484 599.135C110.621 598.477 109.575 597.983 108.344 597.653C107.501 597.427 106.629 597.347 105.732 597.411C104.835 597.476 103.981 597.718 103.172 598.137C102.363 598.557 101.637 599.162 100.998 599.955C100.358 600.75 99.8675 601.775 99.5316 603.028C99.2625 604.032 99.1631 604.927 99.2322 605.715C99.3008 606.506 99.4872 607.227 99.7885 607.881C100.089 608.537 100.479 609.136 100.956 609.68C101.434 610.224 101.961 610.743 102.538 611.24C103.445 612.047 104.16 612.848 104.679 613.648C105.199 614.447 105.317 615.371 105.037 616.42C104.749 617.492 104.241 618.247 103.512 618.688C102.784 619.129 101.986 619.232 101.119 619C100.344 618.792 99.6342 618.406 98.9893 617.843C98.3443 617.28 97.8472 616.607 97.4929 615.829L94.4626 618.243C94.9328 619.225 95.6675 620.13 96.6678 620.961C97.668 621.792 98.8396 622.386 100.186 622.747C101.122 622.997 102.054 623.077 102.983 622.983C103.911 622.889 104.775 622.613 105.571 622.153C106.366 621.696 107.074 621.059 107.694 620.249C108.315 619.438 108.786 618.438 109.103 617.253C109.378 616.227 109.458 615.294 109.339 614.456C109.221 613.618 108.985 612.858 108.63 612.176C108.276 611.495 107.841 610.878 107.33 610.324C106.818 609.771 106.306 609.267 105.792 608.812C104.922 608.042 104.255 607.294 103.789 606.57C103.323 605.847 103.227 604.972 103.502 603.946C103.661 603.352 103.883 602.861 104.172 602.475C104.459 602.088 104.788 601.797 105.157 601.602Z" fill="#00B368"/>
<path d="M88.0403 599.106C88.6649 598.417 89.3474 597.922 90.0888 597.618C90.8296 597.317 91.6106 597.276 92.4316 597.496C93.9147 597.893 94.942 598.889 95.5171 600.486L98.6475 598.245C98.2421 597.109 97.5837 596.146 96.6733 595.35C95.7624 594.555 94.6093 593.973 93.2188 593.6C91.8726 593.239 90.5629 593.225 89.2884 593.554C88.0134 593.885 86.8386 594.511 85.7593 595.432C84.6815 596.355 83.7216 597.539 82.8826 598.988C82.0411 600.438 81.3751 602.086 80.8801 603.934C80.3851 605.781 80.1413 607.536 80.1462 609.2C80.151 610.864 80.3861 612.362 80.8483 613.695C81.3099 615.031 82.007 616.165 82.9428 617.099C83.8787 618.034 85.0305 618.685 86.3989 619.052C87.9042 619.455 89.2311 619.494 90.3822 619.166C91.5334 618.838 92.556 618.282 93.4506 617.495L91.8326 614.092C91.2851 614.581 90.6659 614.952 89.9763 615.207C89.2868 615.463 88.5395 615.482 87.7426 615.269C86.8995 615.043 86.2255 614.612 85.7233 613.975C85.2205 613.34 84.8727 612.57 84.6742 611.66C84.4757 610.751 84.4217 609.729 84.507 608.589C84.5919 607.452 84.796 606.279 85.1201 605.07C85.4501 603.838 85.8628 602.709 86.3587 601.679C86.856 600.652 87.4157 599.795 88.0403 599.106Z" fill="#00B368"/>
<path d="M118.261 621.797L118.158 621.769L119.328 601.257L114.744 600.028L114.173 625.835L119.372 627.228L131.883 604.621L127.504 603.447L118.261 621.797Z" fill="#00B368"/>
<g filter="url(#filter0_d_1401_2)">
<path d="M160 245C217.99 245 265 197.99 265 140C265 82.0101 217.99 35 160 35C102.01 35 55 82.0101 55 140C55 197.99 102.01 245 160 245Z" stroke="white" stroke-opacity="0.44" stroke-width="10" stroke-miterlimit="10" stroke-linecap="round" stroke-linejoin="round" shape-rendering="crispEdges"/>
</g>
<path d="M179 62C193.8 62 207.12 69.6923 216 82" stroke="white" stroke-opacity="0.44" stroke-width="10" stroke-miterlimit="10" stroke-linecap="round" stroke-linejoin="round"/>
<g filter="url(#filter1_d_1401_2)">
<path d="M229 476C284.228 476 329 431.228 329 376C329 320.772 284.228 276 229 276C173.772 276 129 320.772 129 376C129 431.228 173.772 476 229 476Z" stroke="white" stroke-opacity="0.44" stroke-width="10" stroke-miterlimit="10" stroke-linecap="round" stroke-linejoin="round" shape-rendering="crispEdges"/>
</g>
<path d="M172.424 321.44C179.625 308.51 192.827 300.616 207.9 298.847" stroke="white" stroke-opacity="0.44" stroke-width="8" stroke-miterlimit="10" stroke-linecap="round" stroke-linejoin="round"/>
<g filter="url(#filter2_d_1401_2)">
<path d="M434 311C489.228 311 534 266.228 534 211C534 155.772 489.228 111 434 111C378.772 111 334 155.772 334 211C334 266.228 378.772 311 434 311Z" stroke="white" stroke-opacity="0.44" stroke-width="10" stroke-miterlimit="10" stroke-linecap="round" stroke-linejoin="round" shape-rendering="crispEdges"/>
</g>
<path d="M452.824 136C467.563 137.35 480.126 146.225 487.846 159.291" stroke="white" stroke-opacity="0.44" stroke-width="8" stroke-miterlimit="10" stroke-linecap="round" stroke-linejoin="round"/>
<g filter="url(#filter3_d_1401_2)">
<path d="M474 557C526.467 557 569 514.467 569 462C569 409.533 526.467 367 474 367C421.533 367 379 409.533 379 462C379 514.467 421.533 557 474 557Z" stroke="white" stroke-opacity="0.44" stroke-width="10" stroke-miterlimit="10" stroke-linecap="round" stroke-linejoin="round" shape-rendering="crispEdges"/>
</g>
<path d="M547.505 457C550.779 471.433 546.224 486.125 536.186 497.508" stroke="white" stroke-opacity="0.44" stroke-width="8" stroke-miterlimit="10" stroke-linecap="round" stroke-linejoin="round"/>
<g filter="url(#filter4_d_1401_2)">
<path d="M108 692C160.467 692 203 649.467 203 597C203 544.533 160.467 502 108 502C55.5329 502 13 544.533 13 597C13 649.467 55.5329 692 108 692Z" stroke="white" stroke-opacity="0.44" stroke-width="10" stroke-miterlimit="10" stroke-linecap="round" stroke-linejoin="round" shape-rendering="crispEdges"/>
</g>
<path d="M172.92 632.971C168.867 647.205 157.821 657.909 143.552 663.079" stroke="white" stroke-opacity="0.44" stroke-width="8" stroke-miterlimit="10" stroke-linecap="round" stroke-linejoin="round"/>
<path d="M384.976 671.993C384.964 671.822 384.932 671.659 384.876 671.498C384.856 671.438 384.841 671.38 384.814 671.321C384.724 671.126 384.61 670.943 384.452 670.787C384.451 670.785 384.451 670.785 384.451 670.785L373.75 660.083V649.609C373.75 649.568 373.729 649.532 373.726 649.491C373.714 649.326 373.683 649.166 373.63 649.009C373.609 648.949 373.594 648.891 373.566 648.833C373.474 648.634 373.36 648.445 373.199 648.283L356.324 631.408C356.163 631.247 355.973 631.131 355.772 631.041C355.716 631.015 355.66 631 355.602 630.981C355.442 630.925 355.279 630.893 355.109 630.883C355.073 630.878 355.039 630.859 355 630.859H308.125C307.09 630.859 306.25 631.699 306.25 632.734V660.083L295.549 670.783C295.549 670.783 295.548 670.785 295.546 670.787C295.388 670.945 295.276 671.128 295.186 671.321C295.159 671.38 295.144 671.438 295.124 671.498C295.068 671.659 295.034 671.822 295.024 671.993C295.021 672.034 295 672.068 295 672.109V707.734C295 708.769 295.84 709.609 296.875 709.609H306.25V718.984C306.25 720.019 307.09 720.859 308.125 720.859H371.875C372.91 720.859 373.75 720.019 373.75 718.984V709.609H383.125C384.16 709.609 385 708.769 385 707.734V672.109C385 672.068 384.979 672.034 384.976 671.993ZM378.599 670.234H373.75V665.385L378.599 670.234ZM367.349 647.734H356.875V637.26L367.349 647.734ZM310 634.609H353.125V649.609C353.125 650.644 353.965 651.484 355 651.484H370V660.859V670.234H310V660.859V634.609ZM306.25 665.385V670.234H301.401L306.25 665.385ZM370 717.109H310V709.609H370V717.109ZM381.25 705.859H298.75V673.984H308.125H371.875H381.25V705.859Z" fill="#C94F0B"/>
<path d="M322.34 682.921H329.416L321.83 698.954V702.109H333.624V698.667H326.069L333.624 682.634V679.542H322.34V682.921Z" fill="#C94F0B"/>
<path d="M340.892 679.542H337.067V702.109H340.892V679.542Z" fill="#C94F0B"/>
<path d="M356.017 680.959C355.411 680.44 354.727 680.073 353.96 679.861C353.195 679.649 352.451 679.542 351.729 679.542H345.481V702.109H349.243V693.057H351.92C352.706 693.057 353.471 692.918 354.215 692.643C354.96 692.367 355.618 691.941 356.191 691.368C356.765 690.794 357.228 690.078 357.577 689.215C357.928 688.354 358.102 687.351 358.102 686.204C358.102 684.929 357.905 683.866 357.513 683.016C357.123 682.167 356.625 681.481 356.017 680.959ZM353.611 688.994C353.038 689.62 352.305 689.933 351.412 689.933H349.245V682.761H351.412C352.305 682.761 353.038 683.037 353.611 683.59C354.185 684.143 354.472 685.024 354.472 686.236C354.472 687.447 354.185 688.366 353.611 688.994Z" fill="#C94F0B"/>
<g filter="url(#filter5_d_1401_2)">
<path d="M337 775C386.706 775 427 734.706 427 685C427 635.294 386.706 595 337 595C287.294 595 247 635.294 247 685C247 734.706 287.294 775 337 775Z" stroke="white" stroke-opacity="0.44" stroke-width="10" stroke-miterlimit="10" stroke-linecap="round" stroke-linejoin="round" shape-rendering="crispEdges"/>
</g>
<path d="M334.26 753.835C319.582 755.733 305.385 749.813 295 738.746" stroke="white" stroke-opacity="0.44" stroke-width="6" stroke-miterlimit="10" stroke-linecap="round" stroke-linejoin="round"/>
<defs>
<filter id="filter0_d_1401_2" x="42" y="24" width="240" height="240" filterUnits="userSpaceOnUse" color-interpolation-filters="sRGB">
<feFlood flood-opacity="0" result="BackgroundImageFix"/>
<feColorMatrix in="SourceAlpha" type="matrix" values="0 0 0 0 0 0 0 0 0 0 0 0 0 0 0 0 0 0 127 0" result="hardAlpha"/>
<feOffset dx="2" dy="4"/>
<feGaussianBlur stdDeviation="5"/>
<feComposite in2="hardAlpha" operator="out"/>
<feColorMatrix type="matrix" values="0 0 0 0 1 0 0 0 0 1 0 0 0 0 1 0 0 0 0.15 0"/>
<feBlend mode="normal" in2="BackgroundImageFix" result="effect1_dropShadow_1401_2"/>
<feBlend mode="normal" in="SourceGraphic" in2="effect1_dropShadow_1401_2" result="shape"/>
</filter>
<filter id="filter1_d_1401_2" x="116" y="265" width="230" height="230" filterUnits="userSpaceOnUse" color-interpolation-filters="sRGB">
<feFlood flood-opacity="0" result="BackgroundImageFix"/>
<feColorMatrix in="SourceAlpha" type="matrix" values="0 0 0 0 0 0 0 0 0 0 0 0 0 0 0 0 0 0 127 0" result="hardAlpha"/>
<feOffset dx="2" dy="4"/>
<feGaussianBlur stdDeviation="5"/>
<feComposite in2="hardAlpha" operator="out"/>
<feColorMatrix type="matrix" values="0 0 0 0 1 0 0 0 0 1 0 0 0 0 1 0 0 0 0.15 0"/>
<feBlend mode="normal" in2="BackgroundImageFix" result="effect1_dropShadow_1401_2"/>
<feBlend mode="normal" in="SourceGraphic" in2="effect1_dropShadow_1401_2" result="shape"/>
</filter>
<filter id="filter2_d_1401_2" x="321" y="100" width="230" height="230" filterUnits="userSpaceOnUse" color-interpolation-filters="sRGB">
<feFlood flood-opacity="0" result="BackgroundImageFix"/>
<feColorMatrix in="SourceAlpha" type="matrix" values="0 0 0 0 0 0 0 0 0 0 0 0 0 0 0 0 0 0 127 0" result="hardAlpha"/>
<feOffset dx="2" dy="4"/>
<feGaussianBlur stdDeviation="5"/>
<feComposite in2="hardAlpha" operator="out"/>
<feColorMatrix type="matrix" values="0 0 0 0 1 0 0 0 0 1 0 0 0 0 1 0 0 0 0.15 0"/>
<feBlend mode="normal" in2="BackgroundImageFix" result="effect1_dropShadow_1401_2"/>
<feBlend mode="normal" in="SourceGraphic" in2="effect1_dropShadow_1401_2" result="shape"/>
</filter>
<filter id="filter3_d_1401_2" x="366" y="356" width="220" height="220" filterUnits="userSpaceOnUse" color-interpolation-filters="sRGB">
<feFlood flood-opacity="0" result="BackgroundImageFix"/>
<feColorMatrix in="SourceAlpha" type="matrix" values="0 0 0 0 0 0 0 0 0 0 0 0 0 0 0 0 0 0 127 0" result="hardAlpha"/>
<feOffset dx="2" dy="4"/>
<feGaussianBlur stdDeviation="5"/>
<feComposite in2="hardAlpha" operator="out"/>
<feColorMatrix type="matrix" values="0 0 0 0 1 0 0 0 0 1 0 0 0 0 1 0 0 0 0.15 0"/>
<feBlend mode="normal" in2="BackgroundImageFix" result="effect1_dropShadow_1401_2"/>
<feBlend mode="normal" in="SourceGraphic" in2="effect1_dropShadow_1401_2" result="shape"/>
</filter>
<filter id="filter4_d_1401_2" x="0" y="491" width="220" height="220" filterUnits="userSpaceOnUse" color-interpolation-filters="sRGB">
<feFlood flood-opacity="0" result="BackgroundImageFix"/>
<feColorMatrix in="SourceAlpha" type="matrix" values="0 0 0 0 0 0 0 0 0 0 0 0 0 0 0 0 0 0 127 0" result="hardAlpha"/>
<feOffset dx="2" dy="4"/>
<feGaussianBlur stdDeviation="5"/>
<feComposite in2="hardAlpha" operator="out"/>
<feColorMatrix type="matrix" values="0 0 0 0 1 0 0 0 0 1 0 0 0 0 1 0 0 0 0.15 0"/>
<feBlend mode="normal" in2="BackgroundImageFix" result="effect1_dropShadow_1401_2"/>
<feBlend mode="normal" in="SourceGraphic" in2="effect1_dropShadow_1401_2" result="shape"/>
</filter>
<filter id="filter5_d_1401_2" x="234" y="584" width="210" height="210" filterUnits="userSpaceOnUse" color-interpolation-filters="sRGB">
<feFlood flood-opacity="0" result="BackgroundImageFix"/>
<feColorMatrix in="SourceAlpha" type="matrix" values="0 0 0 0 0 0 0 0 0 0 0 0 0 0 0 0 0 0 127 0" result="hardAlpha"/>
<feOffset dx="2" dy="4"/>
<feGaussianBlur stdDeviation="5"/>
<feComposite in2="hardAlpha" operator="out"/>
<feColorMatrix type="matrix" values="0 0 0 0 1 0 0 0 0 1 0 0 0 0 1 0 0 0 0.15 0"/>
<feBlend mode="normal" in2="BackgroundImageFix" result="effect1_dropShadow_1401_2"/>
<feBlend mode="normal" in="SourceGraphic" in2="effect1_dropShadow_1401_2" result="shape"/>
</filter>
<clipPath id="clip0_1401_2">
<rect width="110" height="110" fill="white" transform="translate(174 321)"/>
</clipPath>
<clipPath id="clip1_1401_2">
<rect width="120" height="120" fill="white" transform="translate(82 103.058) rotate(-15)"/>
</clipPath>
<clipPath id="clip2_1401_2">
<rect width="110" height="110" fill="white" transform="translate(395.059 154.859) rotate(15)"/>
</clipPath>
</defs>
</svg>
