<svg width="416" height="281" viewBox="0 0 416 281" fill="none" xmlns="http://www.w3.org/2000/svg">
<path d="M117.836 281H85.1641C84.0601 280.999 83.0017 280.607 82.221 279.911C81.4404 279.215 81.0013 278.27 81 277.286V216.714C81.0013 215.73 81.4404 214.785 82.221 214.089C83.0017 213.393 84.0601 213.001 85.1641 213H117.836C118.94 213.001 119.998 213.393 120.779 214.089C121.56 214.785 121.999 215.73 122 216.714V277.286C121.999 278.27 121.56 279.215 120.779 279.911C119.998 280.607 118.94 280.999 117.836 281Z" fill="#303030"/>
<path d="M193.341 281H161.659C160.424 280.999 159.24 280.544 158.366 279.736C157.493 278.928 157.001 277.833 157 276.69V158.31C157.001 157.167 157.493 156.072 158.366 155.264C159.24 154.456 160.424 154.001 161.659 154H193.341C194.576 154.001 195.76 154.456 196.634 155.264C197.507 156.072 197.999 157.167 198 158.31V276.69C197.999 277.833 197.507 278.928 196.634 279.736C195.76 280.544 194.576 280.999 193.341 281ZM161.659 155.149C160.753 155.15 159.885 155.484 159.244 156.076C158.604 156.669 158.243 157.472 158.242 158.31V276.69C158.243 277.528 158.604 278.331 159.244 278.924C159.885 279.516 160.753 279.85 161.659 279.851H193.341C194.247 279.85 195.115 279.516 195.756 278.924C196.396 278.331 196.757 277.528 196.758 276.69V158.31C196.757 157.472 196.396 156.669 195.756 156.076C195.115 155.484 194.247 155.15 193.341 155.149H161.659Z" fill="#99A1B2"/>
<path d="M268.455 281H237.545C236.34 280.999 235.185 280.545 234.333 279.738C233.481 278.931 233.001 277.837 233 276.696V83.304C233.001 82.1629 233.481 81.0689 234.333 80.262C235.185 79.4551 236.34 79.0013 237.545 79H268.455C269.66 79.0013 270.815 79.4551 271.667 80.262C272.519 81.0689 272.999 82.1629 273 83.304V276.696C272.999 277.837 272.519 278.931 271.667 279.738C270.815 280.545 269.66 280.999 268.455 281ZM237.545 80.1477C236.662 80.1487 235.814 80.4815 235.19 81.0732C234.565 81.6649 234.213 82.4672 234.212 83.304V276.696C234.213 277.533 234.565 278.335 235.19 278.927C235.814 279.518 236.662 279.851 237.545 279.852H268.455C269.338 279.851 270.186 279.518 270.81 278.927C271.435 278.335 271.787 277.533 271.788 276.696V83.304C271.787 82.4672 271.435 81.6649 270.81 81.0732C270.186 80.4815 269.338 80.1487 268.455 80.1477H237.545Z" fill="#99A1B2"/>
<path d="M346.836 281H314.164C313.06 280.999 312.002 280.604 311.221 279.902C310.44 279.201 310.001 278.249 310 277.257V3.74283C310.001 2.75052 310.44 1.79918 311.221 1.09752C312.002 0.395848 313.06 0.00114756 314.164 0H346.836C347.94 0.00114756 348.998 0.395848 349.779 1.09752C350.56 1.79918 350.999 2.75052 351 3.74283V277.257C350.999 278.249 350.56 279.201 349.779 279.902C348.998 280.604 347.94 280.999 346.836 281Z" fill="#303030"/>
<path d="M415.24 281H0.760212C0.558387 280.999 0.365022 280.894 0.222516 280.706C0.08001 280.519 0 280.265 0 280C0 279.735 0.08001 279.481 0.222516 279.294C0.365022 279.106 0.558387 279.001 0.760212 279H415.24C415.442 279.001 415.635 279.106 415.777 279.294C415.92 279.481 416 279.735 416 280C416 280.265 415.92 280.519 415.777 280.706C415.635 280.894 415.442 280.999 415.24 281Z" fill="#606060"/>
<path d="M161.174 135.539L162.673 135.596L162.673 135.596L161.174 135.539ZM205.642 66.9047L206.307 68.2491L205.642 66.9047ZM211.922 64.9812C212.187 64.1964 211.766 63.3451 210.982 63.0798L198.193 58.7564C197.408 58.491 196.557 58.9122 196.291 59.697C196.026 60.4818 196.447 61.333 197.232 61.5984L208.6 65.4414L204.757 76.8094C204.491 77.5942 204.913 78.4455 205.697 78.7108C206.482 78.9761 207.333 78.5549 207.599 77.7701L211.922 64.9812ZM162.501 140.059L162.673 135.596L159.675 135.481L159.503 139.944L162.501 140.059ZM206.307 68.2491L211.166 65.8453L209.836 63.1563L204.977 65.5602L206.307 68.2491ZM162.673 135.596C163.777 106.848 180.52 81.0061 206.307 68.2491L204.977 65.5602C178.204 78.8047 160.822 105.634 159.675 135.481L162.673 135.596Z" fill="#00B368"/>
</svg>
