<svg width="101" height="101" viewBox="0 0 101 101" fill="none" xmlns="http://www.w3.org/2000/svg">
<g filter="url(#filter0_i_1027_3)">
<path d="M36.85 36.85H36.8955M64.1499 64.15H64.1954M68.6999 32.3L32.3 68.7M77.3504 18.6432C78.2872 20.9092 80.0858 22.7104 82.3504 23.6508L90.2905 26.94C92.5569 27.8787 94.3573 29.6791 95.296 31.9454C96.2347 34.2115 96.2347 36.7578 95.296 39.024L92.0091 46.9592C91.07 49.2264 91.0686 51.7753 92.0123 54.0412L95.2933 61.9742C95.7583 63.0966 95.9981 64.2997 95.9981 65.5145C95.9985 66.7298 95.7592 67.9328 95.2942 69.0553C94.8292 70.1783 94.1476 71.1979 93.2885 72.057C92.429 72.916 91.4089 73.5976 90.2865 74.0621L82.3517 77.3491C80.0854 78.2859 78.2845 80.0845 77.344 82.349L74.0548 90.2897C73.1161 92.5561 71.3162 94.3565 69.0498 95.2951C66.7839 96.2338 64.2377 96.2338 61.9714 95.2951L54.0367 92.0082C51.7703 91.0718 49.225 91.0737 46.9605 92.0137L39.0198 95.2983C36.755 96.2347 34.211 96.2338 31.9467 95.2961C29.6825 94.3579 27.8831 92.5597 26.9438 90.2961L23.6537 82.3527C22.7168 80.0868 20.9183 78.2854 18.6539 77.345L10.7132 74.0558C8.44812 73.1176 6.64828 71.318 5.70925 69.0535C4.77027 66.7885 4.769 64.2432 5.7057 61.9773L8.99244 54.0426C9.92878 51.7763 9.92687 49.231 8.98716 46.966L5.70511 39.0193C5.23978 37.8969 5.00018 36.6938 5 35.4788C4.99982 34.2637 5.23901 33.0605 5.70398 31.9379C6.16894 30.8154 6.85053 29.7954 7.70984 28.9364C8.56911 28.0774 9.58921 27.3961 10.7119 26.9314L18.6468 23.6446C20.9107 22.7085 22.7108 20.9123 23.6518 18.6503L26.9409 10.7094C27.8796 8.44318 29.68 6.6427 31.9461 5.70403C34.2122 4.76532 36.7584 4.76532 39.0245 5.70403L46.9591 8.9909C49.2255 9.92725 51.7708 9.92534 54.0357 8.98558L61.9796 5.70913C64.2455 4.77096 66.7907 4.77115 69.0566 5.70967C71.3221 6.64816 73.1225 8.44813 74.0612 10.7137L77.3513 18.657L77.3504 18.6432ZM39.125 36.85C39.125 38.1064 38.1064 39.125 36.85 39.125C35.5935 39.125 34.575 38.1064 34.575 36.85C34.575 35.5936 35.5935 34.575 36.85 34.575C38.1064 34.575 39.125 35.5936 39.125 36.85ZM66.4249 64.15C66.4249 65.4062 65.4062 66.425 64.1499 66.425C62.8937 66.425 61.8749 65.4062 61.8749 64.15C61.8749 62.8937 62.8937 61.875 64.1499 61.875C65.4062 61.875 66.4249 62.8937 66.4249 64.15Z" stroke="#D7D7D7" stroke-width="10" stroke-linecap="round" stroke-linejoin="round"/>
</g>
<defs>
<filter id="filter0_i_1027_3" x="0" y="0" width="105" height="105" filterUnits="userSpaceOnUse" color-interpolation-filters="sRGB">
<feFlood flood-opacity="0" result="BackgroundImageFix"/>
<feBlend mode="normal" in="SourceGraphic" in2="BackgroundImageFix" result="shape"/>
<feColorMatrix in="SourceAlpha" type="matrix" values="0 0 0 0 0 0 0 0 0 0 0 0 0 0 0 0 0 0 127 0" result="hardAlpha"/>
<feOffset dx="4" dy="4"/>
<feGaussianBlur stdDeviation="2.5"/>
<feComposite in2="hardAlpha" operator="arithmetic" k2="-1" k3="1"/>
<feColorMatrix type="matrix" values="0 0 0 0 0 0 0 0 0 0 0 0 0 0 0 0 0 0 0.2 0"/>
<feBlend mode="normal" in2="shape" result="effect1_innerShadow_1027_3"/>
</filter>
</defs>
</svg>
