<svg width="32" height="32" viewBox="0 0 32 32" fill="none" xmlns="http://www.w3.org/2000/svg">
<g clip-path="url(#clip0_1777_2)">
<path d="M16.0996 8.8999C12.1996 8.8999 9.09961 11.9999 9.09961 15.8999C9.09961 17.2999 9.49961 18.6999 10.2996 19.7999L10.3996 19.9999L10.2996 20.1999L9.69961 22.1999L11.6996 21.5999L11.8996 21.4999L12.0996 21.5999C13.2996 22.3999 14.5996 22.7999 16.0996 22.7999C19.9996 22.7999 23.0996 19.6999 23.0996 15.7999C23.0996 11.9999 19.9996 8.8999 16.0996 8.8999ZM19.0996 20.5999C14.8996 20.5999 11.3996 17.1999 11.3996 12.8999C11.3996 11.9999 12.1996 11.1999 13.0996 11.1999C13.1996 11.1999 13.2996 11.1999 13.2996 11.1999C13.4996 11.1999 13.6996 11.2999 13.7996 11.3999L14.2996 14.0999L13.2996 14.5999C13.8996 16.4999 15.3996 18.0999 17.2996 18.5999L17.7996 17.5999L20.4996 18.0999C20.5996 18.2999 20.5996 18.3999 20.6996 18.5999C20.6996 18.6999 20.6996 18.7999 20.6996 18.7999C20.7996 19.7999 19.9996 20.5999 19.0996 20.5999Z" fill="#00B268"/>
<path d="M16 2C8.3 2 2 8.3 2 16C2 23.7 8.3 30 16 30C23.7 30 30 23.7 30 16C30 8.3 23.7 2 16 2ZM16.1 24.8C14.5 24.8 13 24.4 11.7 23.6L7.9 24.8L7 25L7.2 24.2L8.3 20.3C6 16 7.4 10.6 11.7 8.2C16 5.8 21.4 7.2 23.8 11.5C26.2 15.8 24.8 21.2 20.5 23.6C19.2 24.4 17.7 24.8 16.1 24.8Z" fill="#00B268"/>
</g>
<defs>
<clipPath id="clip0_1777_2">
<rect width="32" height="32" fill="white"/>
</clipPath>
</defs>
</svg>
