<svg width="41" height="41" viewBox="0 0 41 41" fill="none" xmlns="http://www.w3.org/2000/svg">
<path d="M5.125 7.6875V33.3003" stroke="#BB8702" stroke-width="3" stroke-linecap="round"/>
<path d="M35.875 15.375V33.3125" stroke="#BB8702" stroke-width="3" stroke-linecap="round" stroke-linejoin="round"/>
<path d="M10.25 2.5625H23.0625" stroke="#BB8702" stroke-width="3" stroke-linecap="round" stroke-linejoin="round"/>
<path d="M10.25 38.4375H30.75" stroke="#BB8702" stroke-width="3" stroke-linecap="round"/>
<path d="M35.875 33.3125C35.889 35.8721 33.3125 38.4375 30.75 38.4375" stroke="#BB8702" stroke-width="3" stroke-linecap="round" stroke-linejoin="round"/>
<path d="M5.125 33.3125C5.125 35.875 7.6875 38.4375 10.25 38.4375" stroke="#BB8702" stroke-width="3" stroke-linecap="round" stroke-linejoin="round"/>
<path d="M5.125 7.68384C5.125 5.12506 7.6875 2.61962 10.25 2.56256" stroke="#BB8702" stroke-width="3" stroke-linecap="round" stroke-linejoin="round"/>
<path d="M35.861 15.3865L23.0625 2.5625" stroke="#BB8702" stroke-width="3" stroke-linecap="round" stroke-linejoin="round"/>
<path d="M23.0625 10.25C23.0704 12.7986 25.6353 15.375 28.1875 15.375" stroke="#BB8702" stroke-width="3" stroke-linecap="round" stroke-linejoin="round"/>
<path d="M23.0625 10.25V2.5625" stroke="#BB8702" stroke-width="3" stroke-linecap="round" stroke-linejoin="round"/>
<path d="M28.1875 15.375H35.875" stroke="#BB8702" stroke-width="3" stroke-linecap="round" stroke-linejoin="round"/>
<path d="M21.6123 31.883L28.1135 24.3623" stroke="#AAAAAA" stroke-width="3" stroke-linecap="round" stroke-linejoin="round"/>
<path d="M13.0723 28.0224L16.4148 31.883L22.916 24.3623" stroke="#BB8702" stroke-width="3" stroke-linecap="round" stroke-linejoin="round"/>
</svg>
