<svg width="23" height="28" viewBox="0 0 23 28" fill="none" xmlns="http://www.w3.org/2000/svg">
<path d="M14 1H3.6C2.91044 1 2.24912 1.27393 1.76152 1.76152C1.27393 2.24912 1 2.91044 1 3.6V24.4C1 25.0896 1.27393 25.7509 1.76152 26.2385C2.24912 26.7261 2.91044 27 3.6 27H19.2C19.8896 27 20.5509 26.7261 21.0385 26.2385C21.5261 25.7509 21.8 25.0896 21.8 24.4V8.8L14 1Z" stroke="#9E9E9E" stroke-width="2" stroke-linecap="round" stroke-linejoin="round"/>
<path d="M14 1V8.8H21.8" stroke="#9E9E9E" stroke-width="2" stroke-linecap="round" stroke-linejoin="round"/>
<path d="M16.6002 15.3H6.2002" stroke="#9E9E9E" stroke-width="2" stroke-linecap="round" stroke-linejoin="round"/>
<path d="M16.6002 20.5H6.2002" stroke="#9E9E9E" stroke-width="2" stroke-linecap="round" stroke-linejoin="round"/>
<path d="M8.8002 10.1001H7.5002H6.2002" stroke="#9E9E9E" stroke-width="2" stroke-linecap="round" stroke-linejoin="round"/>
</svg>
