<svg width="99" height="112" viewBox="0 0 99 112" fill="none" xmlns="http://www.w3.org/2000/svg">
<path d="M86.4063 0.761665L12.3438 30.3867C5.55469 32.8554 0 41.4961 0 48.9023V102.598C0 110.004 5.55469 113.707 12.3438 111.238L86.4063 81.6133C93.1954 79.1445 98.7501 70.5039 98.7501 63.0977V9.4023C98.7501 1.99604 93.1954 -1.70709 86.4063 0.761665ZM90.1095 16.8086L53.0782 74.207L11.7266 46.4336C11.1094 45.8164 9.25782 43.9648 10.4922 42.1133C11.7266 39.6445 14.8125 40.8789 14.8125 40.8789L53.6954 55.0742C53.6954 55.0742 83.3204 16.1914 85.172 13.7226C85.7891 12.4882 87.6407 11.871 89.4923 13.1054C91.3438 14.3398 90.7266 16.1914 90.1095 16.8086Z" fill="#10B981"/>
</svg>
