<svg width="82" height="115" viewBox="0 0 82 115" fill="none" xmlns="http://www.w3.org/2000/svg">
<path d="M79.5235 82.0912C77.9177 81.58 76.1992 82.4685 75.6883 84.0758C70.9688 98.92 57.3224 108.893 41.7314 108.893C22.0878 108.893 6.10644 92.9122 6.10644 73.2681C6.10644 53.6245 22.0876 37.6431 41.7314 37.6431C57.3766 37.6431 71.4187 48.1036 75.8799 63.0812C76.3614 64.6973 78.0624 65.6175 79.6775 65.1357C81.2936 64.6541 82.2136 62.9538 81.732 61.338C79.5019 53.8502 75.0973 47.0354 69.2036 41.8633V28.274C69.2036 12.6837 56.5199 0 40.9298 0C37.4524 0 34.0557 0.624637 30.8334 1.85707C29.2582 2.45924 28.4699 4.22422 29.0716 5.7994C29.674 7.37436 31.4387 8.16364 33.0139 7.56079C35.5372 6.59587 38.2006 6.10644 40.9296 6.10644C53.1526 6.10644 63.0971 16.0508 63.0971 28.274V37.4174C56.6589 33.5617 49.3589 31.5364 41.7314 31.5364C33.2509 31.5364 25.3548 34.0817 18.7618 38.4447V28.2742C18.7618 23.8512 20.0598 19.5819 22.5152 15.9277C23.4559 14.5282 23.0835 12.6311 21.6842 11.6907C20.2847 10.75 18.3872 11.1217 17.4469 12.5217C14.3121 17.1862 12.6554 22.6336 12.6554 28.2742V43.3655C4.85492 50.9523 0 61.553 0 73.2681C0 96.2788 18.7203 115 41.7314 115C50.7677 115 59.3668 112.159 66.5995 106.784C73.6892 101.516 78.8445 94.3034 81.5077 85.9264C82.0189 84.3189 81.1303 82.602 79.5235 82.0912Z" fill="#991B1B"/>
<path d="M40.9297 97.7511C54.4521 97.7511 65.4141 86.7891 65.4141 73.2667C65.4141 59.7444 54.4521 48.7823 40.9297 48.7823C27.4073 48.7823 16.4453 59.7444 16.4453 73.2667C16.4453 86.7891 27.4073 97.7511 40.9297 97.7511Z" fill="#F9AAA8"/>
<path d="M40.9297 100.807C25.7451 100.807 13.3911 88.4528 13.3911 73.2679C13.3911 58.083 25.7451 45.7295 40.9297 45.7295C56.1144 45.7295 68.4684 58.0832 68.4684 73.2681C68.4684 88.453 56.1144 100.807 40.9297 100.807ZM40.9297 51.8359C29.1119 51.8359 19.4978 61.4505 19.4978 73.2679C19.4978 85.0852 29.1119 94.6999 40.9297 94.6999C52.7475 94.6999 62.3617 85.0852 62.3617 73.2679C62.3617 61.4505 52.7475 51.8359 40.9297 51.8359Z" fill="#991B1B"/>
<path d="M45.2476 72.5124L50.753 67.007C51.9453 65.8147 51.9453 63.8813 50.753 62.6891C49.561 61.4969 47.6283 61.4969 46.4347 62.6891L40.9293 68.1945L35.4239 62.6891C34.2313 61.4969 32.2985 61.4969 31.1056 62.6891C29.9134 63.8813 29.9134 65.8147 31.1056 67.007L36.611 72.5124L31.1056 78.0178C29.9134 79.21 29.9134 81.1434 31.1056 82.3356C31.7019 82.932 32.4833 83.23 33.2645 83.23C34.0457 83.23 34.8271 82.9317 35.4235 82.3356L40.9289 76.8302L46.4343 82.3356C47.0306 82.932 47.812 83.23 48.5932 83.23C49.3746 83.23 50.1558 82.9317 50.7521 82.3356C51.9444 81.1434 51.9444 79.21 50.7521 78.0178L45.2476 72.5124Z" fill="#991B1B"/>
</svg>
