<svg width="123" height="117" viewBox="0 0 123 117" fill="none" xmlns="http://www.w3.org/2000/svg">
<path d="M23.1579 114H5V90.8H23.1579V114ZM71.5789 79.2H53.4211V114H71.5789V79.2ZM120 56H101.842V114H120V56Z" stroke="url(#paint0_linear_1233_3)" stroke-width="6" stroke-linecap="round" stroke-linejoin="round"/>
<path d="M23.1579 114H5V92H23.1579V114ZM71.5789 81H53.4211V114H71.5789V81ZM120 59H101.842V114H120V59Z" fill="#B7B7B7"/>
<path d="M107.944 5C83.7222 47 29.2222 59 5 59M107.944 5L114 29M107.944 5H83.7222" stroke="url(#paint1_linear_1233_3)" stroke-width="10" stroke-linecap="round" stroke-linejoin="round"/>
<defs>
<linearGradient id="paint0_linear_1233_3" x1="62.5" y1="56" x2="62.5" y2="114" gradientUnits="userSpaceOnUse">
<stop stop-color="#666666"/>
<stop offset="1" stop-color="#494949"/>
</linearGradient>
<linearGradient id="paint1_linear_1233_3" x1="59.5" y1="5" x2="59.5" y2="59" gradientUnits="userSpaceOnUse">
<stop stop-color="#00B368"/>
<stop offset="1" stop-color="#007041"/>
</linearGradient>
</defs>
</svg>
