<svg width="103" height="144" viewBox="0 0 103 144" fill="none" xmlns="http://www.w3.org/2000/svg">
<path d="M99.5771 102.793C97.5665 102.153 95.4146 103.265 94.7748 105.278C88.8649 123.865 71.777 136.354 52.2548 136.354C27.6576 136.354 7.64578 116.342 7.64578 91.7446C7.64578 67.1473 27.6576 47.1358 52.2548 47.1358C71.8447 47.1358 89.4279 60.2342 95.0141 78.9888C95.6171 81.0124 97.7462 82.1647 99.7695 81.5614C101.793 80.9584 102.945 78.8293 102.342 76.806C99.5496 67.4303 94.0342 58.8971 86.6545 52.4205V35.404C86.6548 15.8822 70.7726 0 51.2508 0C46.8965 0 42.6428 0.782156 38.6083 2.32537C36.6362 3.07969 35.6487 5.28947 36.4027 7.26187C37.1571 9.234 39.3657 10.2212 41.3398 9.46744C44.4985 8.25891 47.8333 7.64634 51.2508 7.64634C66.5564 7.64634 79.0087 20.0984 79.0087 35.404V46.8532C70.947 42.0247 61.8061 39.4889 52.2551 39.4889C41.6357 39.4889 31.7483 42.676 23.4931 48.1393V35.404C23.4931 29.8654 25.1184 24.5197 28.1933 19.9443C29.3712 18.1918 28.9052 15.8164 27.1527 14.6385C25.4005 13.4612 23.0251 13.9261 21.8469 15.6791C17.9212 21.5198 15.8467 28.3407 15.8467 35.404V54.3009C6.07922 63.801 0 77.0749 0 91.7443C0 120.558 23.4413 144 52.2554 144C63.5701 144 74.3378 140.442 83.3943 133.712C92.2719 127.116 98.7272 118.084 102.063 107.595C102.702 105.582 101.589 103.432 99.5771 102.793Z" fill="#10B981"/>
<path d="M51.2506 122.402C68.183 122.402 81.9094 108.675 81.9094 91.7429C81.9094 74.8105 68.183 61.0841 51.2506 61.0841C34.3182 61.0841 20.5918 74.8105 20.5918 91.7429C20.5918 108.675 34.3182 122.402 51.2506 122.402Z" fill="#D3FFF1"/>
<path d="M51.2508 126.228C32.2369 126.228 16.7676 110.759 16.7676 91.7443C16.7676 72.7301 32.2369 57.2611 51.2508 57.2611C70.2647 57.2611 85.734 72.7301 85.734 91.7443C85.734 110.759 70.2644 126.228 51.2508 126.228ZM51.2508 64.9077C36.4528 64.9077 24.4142 76.9469 24.4142 91.7443C24.4142 106.542 36.4528 118.581 51.2508 118.581C66.0488 118.581 78.0874 106.542 78.0874 91.7443C78.0874 76.9469 66.0488 64.9077 51.2508 64.9077Z" fill="#10B981"/>
<path d="M51.251 102.204C50.3279 102.204 49.4321 101.87 48.7326 101.257L38.6408 92.4218C37.0523 91.0311 36.8917 88.6154 38.2822 87.0269C39.6739 85.4378 42.0887 85.2778 43.6772 86.6686L50.7897 92.8955L60.6495 80.7995C61.9837 79.1623 64.3918 78.9176 66.0284 80.2513C67.6647 81.5856 67.9102 83.9939 66.5763 85.6305L54.2145 100.796C53.5592 101.601 52.6052 102.104 51.5716 102.191C51.4641 102.2 51.3573 102.204 51.251 102.204Z" fill="#10B981"/>
</svg>
