<svg width="19" height="21" viewBox="0 0 19 21" fill="none" xmlns="http://www.w3.org/2000/svg">
<path d="M14.5024 7.14605C14.5024 5.7486 13.9334 4.40838 12.9205 3.42024C11.9076 2.43209 10.5339 1.87695 9.10144 1.87695C7.66901 1.87695 6.29526 2.43209 5.28238 3.42024C4.26951 4.40838 3.70048 5.7486 3.70048 7.14605C3.70048 13.2933 1 15.0497 1 15.0497H17.2029C17.2029 15.0497 14.5024 13.2933 14.5024 7.14605Z" stroke="#00B368" stroke-width="2" stroke-linecap="round" stroke-linejoin="round"/>
<path d="M10.6585 18.5625C10.5002 18.8281 10.2731 19.0487 9.99978 19.2019C9.72648 19.3552 9.41662 19.4359 9.10122 19.4359C8.78582 19.4359 8.47596 19.3552 8.20266 19.2019C7.92935 19.0487 7.7022 18.8281 7.54395 18.5625" stroke="#00B368" stroke-width="2" stroke-linecap="round" stroke-linejoin="round"/>
</svg>
