<svg width="26" height="26" viewBox="0 0 26 26" fill="none" xmlns="http://www.w3.org/2000/svg">
<path opacity="0.1" d="M19.5 8.25C19.5 11.7017 16.7017 14.5 13.25 14.5C9.79822 14.5 7 11.7017 7 8.25C7 4.79822 9.79822 2 13.25 2C16.7017 2 19.5 4.79822 19.5 8.25Z" fill="#323232"/>
<path d="M19.5 8.25C19.5 11.7017 16.7017 14.5 13.25 14.5C9.79822 14.5 7 11.7017 7 8.25C7 4.79822 9.79822 2 13.25 2C16.7017 2 19.5 4.79822 19.5 8.25Z" stroke="white" stroke-width="3"/>
<path d="M2 24.5C3.1966 20.6546 6.27498 19.5 13.25 19.5C20.225 19.5 23.3034 20.6546 24.5 24.5" stroke="white" stroke-width="3" stroke-linecap="round"/>
</svg>
